PathFileType	4	(X/Y/Z)	/Users/itak/Documents/Research/Walk-IL/dataset/trc/00307_00010.trc
DataRate	CameraRate	NumFrames	NumMarkers	Units	OrigDataRate	OrigDataStartFrame	OrigNumFrames
100.000000	100.000000	4	57	mm	100.000000	127	509
Frame#	Time	RPSI			LPSI			L3			STRN			T10			C7			CLAV			RBAK			LBAK			LSHO			LUPA			LAEL			LAOL			LWTS			LWPS			LFRA			LIFD			LHPS			RSHO			RUPA			RAEL			RAOL			RWTS			RFRA			RIFD			RHTS			RHPS			RBHD			LFHD			RFHD			LBHD			LHIP			RHIP			RASI			LASI			LKNE			LTHI			LANK			LTIP			LTOE			LMT1			LMT5			LHEE			RKNE			RTHI			RANK			RTIP			RTOE			RMT1			RMT5			RHEE			LHTS			RWPS			*53			*54			*55			*56			
		X1	Y1	Z1	X2	Y2	Z2	X3	Y3	Z3	X4	Y4	Z4	X5	Y5	Z5	X6	Y6	Z6	X7	Y7	Z7	X8	Y8	Z8	X9	Y9	Z9	X10	Y10	Z10	X11	Y11	Z11	X12	Y12	Z12	X13	Y13	Z13	X14	Y14	Z14	X15	Y15	Z15	X16	Y16	Z16	X17	Y17	Z17	X18	Y18	Z18	X19	Y19	Z19	X20	Y20	Z20	X21	Y21	Z21	X22	Y22	Z22	X23	Y23	Z23	X24	Y24	Z24	X25	Y25	Z25	X26	Y26	Z26	X27	Y27	Z27	X28	Y28	Z28	X29	Y29	Z29	X30	Y30	Z30	X31	Y31	Z31	X32	Y32	Z32	X33	Y33	Z33	X34	Y34	Z34	X35	Y35	Z35	X36	Y36	Z36	X37	Y37	Z37	X38	Y38	Z38	X39	Y39	Z39	X40	Y40	Z40	X41	Y41	Z41	X42	Y42	Z42	X43	Y43	Z43	X44	Y44	Z44	X45	Y45	Z45	X46	Y46	Z46	X47	Y47	Z47	X48	Y48	Z48	X49	Y49	Z49	X50	Y50	Z50	X51	Y51	Z51	X52	Y52	Z52	X53	Y53	Z53	X54	Y54	Z54	X55	Y55	Z55	X56	Y56	Z56	X57	Y57	Z57	

128	1.27	-1214.2255859375	1013.048278808594	-254.4011993408203	-1213.261962890625	1003.105163574219	-429.006591796875	-1192.222778320312	1078.9453125	-345.8321533203125	-934.1083984375	1244.114013671875	-356.8433837890625	-1199.978393554688	1195.315551757812	-350.3104248046875	-1143.626342773438	1436.442504882812	-374.5711975097656	-990.54150390625	1348.470581054688	-363.8639526367188	-1202.241943359375	1305.341674804688	-291.9166870117188	-1159.083129882812	1397.81640625	-478.678466796875	-1067.021118164062	1397.698120117188	-531.3399658203125	-1094.013305664062	1277.20068359375	-600.52685546875	-1088.816650390625	1071.486938476562	-605.9285888671875	-1157.165771484375	1063.432739257812	-553.4293212890625	-1028.16796875	848.3870849609375	-529.8095092773438	-1049.64013671875	834.2593994140625	-598.48046875	-1076.924072265625	965.9974975585938	-606.4418334960938	-1029.563720703125	665.3388671875	-522.9466552734375	-1046.342895507812	746.0423583984375	-591.7020874023438	-1077.333618164062	1417.215209960938	-213.8174133300781	-1082.644165039062	1358.767578125	-145.2281341552734	-1077.220947265625	1090.573486328125	-91.78398132324219	-1117.902465820312	1082.384399414062	-178.7375183105469	-982.9029541015625	865.5380249023438	-152.3023223876953	-1051.204467773438	1023.837341308594	-82.76389312744141	-976.7683715820312	679.880859375	-152.7644348144531	-951.5408325195312	750.0076293945312	-137.1343383789062	-994.2010498046875	749.5737915039062	-80.25526428222656	-1132.609985351562	1591.363403320312	-319.9074401855469	-936.8377075195312	1632.0048828125	-392.235595703125	-960.7352905273438	1627.214721679688	-302.6313781738281	-1094.308837890625	1588.563110351562	-460.5481262207031	-1145.365478515625	950.580078125	-523.83447265625	-1114.387573242188	961.370361328125	-151.0662078857422	-995.3515014648438	961.1342163085938	-223.2848358154297	-1007.806823730469	953.8377685546875	-474.4621276855469	-1111.64404296875	483.1539916992188	-478.151123046875	-1106.891845703125	624.598876953125	-504.0440063476562	-1206.93115234375	48.01996231079102	-447.8790893554688	-1169.039428710938	262.4317016601562	-472.2618103027344	-996.8619995117188	40.73281860351562	-400.59716796875	-1064.911987304688	33.58933258056641	-355.9333190917969	-1084.79150390625	44.69852066040039	-467.3959350585938	-1250.383666992188	39.7030029296875	-387.1485595703125	-1074.617797851562	488.8464965820312	-162.0128479003906	-1052.616577148438	751.9714965820312	-145.5907440185547	-1174.919311523438	49.24399948120117	-158.9493103027344	-1076.493286132812	364.8589172363281	-162.5225982666016	-975.4261474609375	46.62068557739258	-202.2945404052734	-1030.884765625	45.60213851928711	-244.8524169921875	-1071.537109375	40.07565307617188	-132.6351318359375	-1223.091430664062	44.5207405090332	-211.9726257324219	-1003.174011230469	750.5213623046875	-540.4909057617188	-1017.901672363281	861.6070556640625	-74.58930969238281	nan	nan	nan	nan	nan	nan	nan	nan	nan	nan	nan	nan	
129	1.28	-1213.755493164062	1012.344482421875	-255.0245819091797	-1213.08154296875	1002.892578125	-429.6626586914062	-1191.7451171875	1078.868774414062	-346.4053955078125	-933.041259765625	1243.616943359375	-357.8205261230469	-1199.139526367188	1195.409301757812	-350.8870544433594	-1142.195434570312	1436.355102539062	-375.3843688964844	-989.3460083007812	1348.091796875	-364.8272705078125	-1201.012084960938	1305.512329101562	-292.5348510742188	-1157.890747070312	1397.662841796875	-479.4195556640625	-1065.933471679688	1397.31640625	-532.1865234375	-1093.14111328125	1276.907348632812	-601.3555908203125	-1088.203369140625	1071.174438476562	-606.7796630859375	-1156.62646484375	1063.20654296875	-554.3253784179688	-1027.663940429688	848.0404663085938	-530.6985473632812	-1049.2421875	833.9334716796875	-599.3525390625	-1076.418701171875	965.6774291992188	-607.2942504882812	-1029.138427734375	664.996337890625	-523.827392578125	-1045.958862304688	745.71240234375	-592.579345703125	-1075.7919921875	1417.158447265625	-214.7011871337891	-1081.252197265625	1358.799682617188	-146.1054382324219	-1076.913940429688	1090.730590820312	-92.27303314208984	-1117.24609375	1082.509643554688	-179.3894348144531	-982.9300537109375	865.29833984375	-151.6172790527344	-1051.158569335938	1023.959228515625	-82.96562194824219	-977.2146606445312	679.6248168945312	-151.6728973388672	-951.9453735351562	749.7612915039062	-135.9627075195312	-995.113525390625	749.5379028320312	-79.43683624267578	-1131.1845703125	1590.958984375	-321.1608581542969	-935.0696411132812	1631.6171875	-392.5650939941406	-959.3525390625	1626.705322265625	-303.0992736816406	-1092.302734375	1588.332275390625	-461.619140625	-1145.254028320312	950.5562744140625	-524.7042236328125	-1113.653564453125	960.6339111328125	-151.9394226074219	-994.82763671875	960.6380615234375	-224.4610443115234	-1007.6806640625	953.8110961914062	-475.5759887695312	-1110.913330078125	483.0431823730469	-478.9024353027344	-1106.393188476562	624.5263671875	-504.8774108886719	-1206.95751953125	47.98377990722656	-447.9036560058594	-1168.610717773438	262.2469787597656	-472.6466369628906	-996.8731079101562	40.74952697753906	-400.5909423828125	-1064.933471679688	33.59388732910156	-355.9534912109375	-1084.797607421875	44.67914581298828	-467.4201354980469	-1250.407958984375	39.66353607177734	-387.1660461425781	-1071.099365234375	488.3706359863281	-162.8696746826172	-1050.797485351562	751.3715209960938	-146.6444396972656	-1174.835205078125	49.48297119140625	-159.1221466064453	-1073.576782226562	364.20556640625	-163.1374816894531	-975.3096923828125	46.51637268066406	-202.3441925048828	-1030.75439453125	45.50077819824219	-244.9279479980469	-1071.429565429688	40.18454360961914	-132.7523803710938	-1223.021850585938	44.77637481689453	-212.105712890625	-1002.696960449219	750.2055053710938	-541.36865234375	-1018.461730957031	861.6461181640625	-74.19515991210938	nan	nan	nan	nan	nan	nan	nan	nan	nan	nan	nan	nan	
130	1.29	-1213.292602539062	1011.538635253906	-255.6398773193359	-1212.88525390625	1002.639953613281	-430.3115844726562	-1191.284790039062	1078.7568359375	-346.9685974121094	-931.9443359375	1243.058227539062	-358.7715454101562	-1198.296020507812	1195.482299804688	-351.4607238769531	-1140.728759765625	1436.229736328125	-376.2103271484375	-988.1216430664062	1347.655517578125	-365.7915344238281	-1199.755493164062	1305.660522460938	-293.1524353027344	-1156.652954101562	1397.466674804688	-480.1624145507812	-1064.79931640625	1396.888427734375	-533.0292358398438	-1092.241455078125	1276.576904296875	-602.1921997070312	-1087.544555664062	1070.833374023438	-607.6246948242188	-1156.037841796875	1062.945678710938	-555.203369140625	-1027.06982421875	847.6826782226562	-531.6032104492188	-1048.810302734375	833.5824584960938	-600.23095703125	-1075.892578125	965.3291625976562	-608.1528930664062	-1028.68115234375	664.6368408203125	-524.7294921875	-1045.513305664062	745.3552856445312	-593.456298828125	-1074.207153320312	1417.063354492188	-215.5853576660156	-1079.821533203125	1358.803466796875	-146.977783203125	-1076.5703125	1090.867919921875	-92.71862030029297	-1116.61328125	1082.615112304688	-179.9945220947266	-983.0023803710938	865.0098266601562	-150.8889465332031	-1051.087524414062	1024.058349609375	-83.13381958007812	-977.8046875	679.3280029296875	-150.5200500488281	-952.4765014648438	749.4609375	-134.7293853759766	-996.0578002929688	749.470703125	-78.54803466796875	-1129.706665039062	1590.513671875	-322.452880859375	-933.2376708984375	1631.184204101562	-392.8626708984375	-957.9496459960938	1626.142822265625	-303.5384521484375	-1090.207885742188	1588.063842773438	-462.7336730957031	-1145.125	950.5303344726562	-525.57666015625	-1112.918579101562	959.7858276367188	-152.8191375732422	-994.3087768554688	960.0757446289062	-225.6340942382812	-1007.529724121094	953.7644653320312	-476.6885681152344	-1110.120361328125	482.9217529296875	-479.6781616210938	-1105.834350585938	624.4520874023438	-505.7274780273438	-1206.983764648438	47.94374084472656	-447.9284057617188	-1168.178344726562	262.0585632324219	-473.0578918457031	-996.8888549804688	40.76779937744141	-400.587646484375	-1064.961059570312	33.597412109375	-355.9796752929688	-1084.81005859375	44.65805053710938	-467.4505615234375	-1250.433227539062	39.62332916259766	-387.1842956542969	-1067.31494140625	487.8481140136719	-163.7169494628906	-1048.881591796875	750.709716796875	-147.7527770996094	-1174.72900390625	49.74796676635742	-159.2917785644531	-1070.476318359375	363.5017700195312	-163.7571563720703	-975.184326171875	46.40740966796875	-202.3937683105469	-1030.618286132812	45.3984489440918	-245.0045166015625	-1071.310668945312	40.29504776000977	-132.8697814941406	-1222.963012695312	45.10755920410156	-212.2536468505859	-1002.144592285156	749.8711547851562	-542.282958984375	-1019.058532714844	861.648681640625	-73.75266265869141	nan	nan	nan	nan	nan	nan	nan	nan	nan	nan	nan	nan	
131	1.3	-1212.837768554688	1010.622375488281	-256.2434692382812	-1212.67919921875	1002.338684082031	-430.9527282714844	-1190.851806640625	1078.60791015625	-347.519775390625	-930.8256225585938	1242.435180664062	-359.6922912597656	-1197.452270507812	1195.532348632812	-352.0295715332031	-1139.223022460938	1436.065795898438	-377.044189453125	-986.8638305664062	1347.15380859375	-366.7461547851562	-1198.48486328125	1305.783813476562	-293.7704772949219	-1155.372924804688	1397.225219726562	-480.9073181152344	-1063.612915039062	1396.408935546875	-533.86376953125	-1091.3095703125	1276.203735351562	-603.0330810546875	-1086.835571289062	1070.459716796875	-608.4595947265625	-1155.386352539062	1062.647827148438	-556.0554809570312	-1026.39208984375	847.3096923828125	-532.5213623046875	-1048.33935546875	833.1998901367188	-601.1107177734375	-1075.33642578125	964.94921875	-609.0120849609375	-1028.181640625	664.2557983398438	-525.6458740234375	-1045.016357421875	744.9674682617188	-594.3297119140625	-1072.580444335938	1416.927001953125	-216.4656219482422	-1078.346069335938	1358.775146484375	-147.8369445800781	-1076.184326171875	1090.977172851562	-93.11968994140625	-1115.99658203125	1082.6943359375	-180.5461730957031	-983.1031494140625	864.6646728515625	-150.117919921875	-1050.991333007812	1024.129272460938	-83.27036285400391	-978.5396118164062	678.9888305664062	-149.3137054443359	-953.1190795898438	749.0995483398438	-133.4396514892578	-997.0430297851562	749.367919921875	-77.59292602539062	-1128.173828125	1590.027465820312	-323.7883911132812	-931.34326171875	1630.698608398438	-393.1364135742188	-956.5198974609375	1625.528930664062	-303.9534606933594	-1088.01708984375	1587.747314453125	-463.8944091796875	-1144.9677734375	950.4990234375	-526.4445190429688	-1112.181762695312	958.8203735351562	-153.6990661621094	-993.7772827148438	959.4441528320312	-226.7861022949219	-1007.350646972656	953.6948852539062	-477.79248046875	-1109.279174804688	482.7920532226562	-480.4789733886719	-1105.207641601562	624.3714599609375	-506.5892028808594	-1207.009521484375	47.90039825439453	-447.9526977539062	-1167.749755859375	261.8686828613281	-473.4959106445312	-996.9111328125	40.78774261474609	-400.5894165039062	-1064.993041992188	33.59962463378906	-356.0108032226562	-1084.824951171875	44.63398361206055	-467.4857177734375	-1250.458740234375	39.58280944824219	-387.2026062011719	-1063.280639648438	487.2841796875	-164.5458374023438	-1046.896240234375	749.98779296875	-148.9054412841797	-1174.599609375	50.05324935913086	-159.4540710449219	-1067.214233398438	362.7583923339844	-164.3790130615234	-975.0535888671875	46.29695129394531	-202.4436492919922	-1030.48095703125	45.29691696166992	-245.0834197998047	-1071.185424804688	40.40426635742188	-132.9851837158203	-1222.906127929688	45.52867889404297	-212.4089050292969	-1001.539855957031	749.5025024414062	-543.2324829101562	-1019.689025878906	861.6104125976562	-73.26370239257812	nan	nan	nan	nan	nan	nan	nan	nan	nan	nan	nan	nan	
